<svg width="16" height="17" viewBox="0 0 16 17" fill="none" xmlns="http://www.w3.org/2000/svg">
<g clip-path="url(#clip0_376_1270)">
<path fill-rule="evenodd" clip-rule="evenodd" d="M3.75 2.37915C3.61193 2.37915 3.5 2.49108 3.5 2.62915V15.1292C3.5 15.2672 3.61193 15.3792 3.75 15.3792H13.25C13.3881 15.3792 13.5 15.2672 13.5 15.1292V6.87915H10.75C9.7835 6.87915 9 6.09565 9 5.12915V2.37915H3.75ZM10.5 2.44065V5.12915C10.5 5.26722 10.6119 5.37915 10.75 5.37915H13.4385C13.4348 5.37484 13.4308 5.37065 13.4268 5.36659L10.5126 2.45237C10.5085 2.44831 10.5043 2.4444 10.5 2.44065ZM2 2.62915C2 1.66265 2.7835 0.87915 3.75 0.87915H10.3358C10.7999 0.87915 11.245 1.06352 11.5732 1.39171L14.4874 4.30593C14.8156 4.63412 15 5.07924 15 5.54336V15.1292C15 16.0956 14.2165 16.8792 13.25 16.8792H3.75C2.7835 16.8792 2 16.0956 2 15.1292V2.62915Z" fill="#636C76"/>
</g>
<defs>
<clipPath id="clip0_376_1270">
<rect width="16" height="16" fill="white" transform="translate(0 0.87915)"/>
</clipPath>
</defs>
</svg>
