<svg width="17" height="17" viewBox="0 0 17 17" fill="none" xmlns="http://www.w3.org/2000/svg">
<g clip-path="url(#clip0_376_2328)">
<path fill-rule="evenodd" clip-rule="evenodd" d="M1.8501 1.87915C1.38597 1.87915 0.94085 2.06352 0.612661 2.39171C0.284472 2.7199 0.100098 3.16502 0.100098 3.62915V14.1292C0.100098 15.0951 0.884098 15.8792 1.8501 15.8792H14.3501C14.8142 15.8792 15.2593 15.6948 15.5875 15.3666C15.9157 15.0384 16.1001 14.5933 16.1001 14.1292V5.62915C16.1001 5.16502 15.9157 4.7199 15.5875 4.39171C15.2593 4.06352 14.8142 3.87915 14.3501 3.87915H7.8501C7.81129 3.87915 7.77301 3.87011 7.7383 3.85276C7.70358 3.8354 7.67339 3.8102 7.6501 3.77915L6.7501 2.57915C6.4201 2.13915 5.9001 1.87915 5.3501 1.87915H1.8501Z" fill="#54AEFF"/>
</g>
<defs>
<clipPath id="clip0_376_2328">
<rect width="16" height="16" fill="white" transform="translate(0.100098 0.87915)"/>
</clipPath>
</defs>
</svg>
