<svg width="16" height="17" viewBox="0 0 16 17" fill="none" xmlns="http://www.w3.org/2000/svg">
<path d="M0.512563 2.39171C0.840752 2.06352 1.28587 1.87915 1.75 1.87915H5.25C5.8 1.87915 6.32 2.13915 6.65 2.57915L7.55 3.77915C7.57329 3.8102 7.60348 3.8354 7.6382 3.85276C7.67291 3.87011 7.71119 3.87915 7.75 3.87915H13C13.5523 3.87915 14 4.32687 14 4.87915V5.37915H2.75C2.33579 5.37915 2 5.71494 2 6.12915C2 6.54336 2.33579 6.87915 2.75 6.87915H14.7284C15.327 6.87915 15.7915 7.4015 15.7215 7.99599L15 14.1292C15 14.5933 14.8156 15.0384 14.4874 15.3666C14.1592 15.6948 13.7141 15.8792 13.25 15.8792H1.75C0.784 15.8792 0 15.0951 0 14.1292V3.62915C0 3.16502 0.184374 2.7199 0.512563 2.39171Z" fill="#54AEFF"/>
</svg>
