<svg width="138" height="98" viewBox="0 0 138 98" fill="none" xmlns="http://www.w3.org/2000/svg">
<g clip-path="url(#clip0_300_987)">
<g clip-path="url(#clip1_300_987)">
<g clip-path="url(#clip2_300_987)">
<g clip-path="url(#clip3_300_987)">
<g clip-path="url(#clip4_300_987)">
<g clip-path="url(#clip5_300_987)">
<path d="M22.6563 42.2227L42.7193 21.7435H50.1146L22.6563 49.6575V42.2227ZM26.5593 43.1014L30.3939 39.6544L51.2786 64.1889H44.2942L26.5593 43.1014ZM18 64.1889V21.7435H23.4095V64.1889H18ZM74.7928 65C71.2321 65 68.0504 64.1889 65.2475 62.5668C62.4354 60.9447 60.2214 58.507 58.6054 55.2538C56.9803 51.9915 56.1677 47.9182 56.1677 43.0338C56.1677 38.0773 56.9803 33.9725 58.6054 30.7192C60.2214 27.4569 62.4354 25.0238 65.2475 23.4197C68.0504 21.8066 71.2321 21 74.7928 21C78.3535 21 81.5398 21.8111 84.3519 23.4332C87.1548 25.0553 89.3688 27.4975 90.9939 30.7598C92.6099 34.031 93.4179 38.1224 93.4179 43.0338C93.4179 47.9632 92.6099 52.0591 90.9939 55.3214C89.3688 58.5746 87.1548 60.9988 84.3519 62.5939C81.5398 64.198 78.3535 65 74.7928 65ZM74.7928 60.1336C78.8374 60.1336 82.0283 58.6782 84.3656 55.7674C86.7028 52.8656 87.8715 48.5986 87.8715 42.9662C87.8715 37.442 86.7028 33.1884 84.3656 30.2055C82.0283 27.2226 78.8374 25.7312 74.7928 25.7312C70.803 25.7312 67.6258 27.2271 65.2612 30.2191C62.8965 33.22 61.7142 37.4916 61.7142 43.0338C61.7142 48.6391 62.8965 52.8927 65.2612 55.7945C67.6258 58.6873 70.803 60.1336 74.7928 60.1336ZM97.4168 62.0937V56.619C99.0419 57.6554 100.663 58.4529 102.279 59.0117C103.904 59.5794 105.483 59.8633 107.017 59.8633C109.409 59.8633 111.112 59.1649 112.125 57.7681C113.139 56.3712 113.645 54.4112 113.645 51.8879V21.7435H119V51.8879C119 54.9699 118.525 57.4752 117.576 59.4037C116.626 61.3322 115.28 62.7471 113.536 63.6482C111.783 64.5494 109.724 65 107.359 65C105.506 65 103.762 64.7251 102.128 64.1754C100.494 63.6167 98.9233 62.9228 97.4168 62.0937Z" fill="#6B7280"/>
</g>
</g>
<g clip-path="url(#clip6_300_987)">
<g clip-path="url(#clip7_300_987)">
<path d="M5.12769 92.4253V92.567C5.12769 92.6131 5.10461 92.6362 5.05843 92.6362H0.0891431C0.0498966 92.6362 0.0302734 92.6131 0.0302734 92.567V92.408C0.0302734 92.3642 0.149167 92.3389 0.386954 92.3319C0.62705 92.3273 0.920244 92.2386 1.26654 92.0657C1.61283 91.8952 1.78597 91.6348 1.78597 91.2844V82.085C1.78597 81.4489 1.22267 81.0974 0.0960689 81.0306C0.0522052 81.0306 0.0302734 81.0087 0.0302734 80.9649V80.8024C0.0302734 80.7586 0.0498966 80.7367 0.0891431 80.7367H5.05843C5.10461 80.7367 5.12769 80.7586 5.12769 80.8024V80.9649C5.12769 80.9972 5.01111 81.0133 4.77794 81.0133C4.54246 81.0133 4.28389 81.0813 4.00224 81.2173C3.62594 81.397 3.43779 81.692 3.43779 82.1023V85.8256C3.43779 86.3211 3.48511 86.5689 3.57977 86.5689C3.82217 86.5689 4.12922 86.4156 4.5009 86.1091C4.87259 85.8026 5.20272 85.4857 5.4913 85.1584C5.77757 84.8311 6.06614 84.4439 6.35703 83.9968C6.64792 83.5497 6.84992 83.2443 6.96304 83.0807C7.38552 82.486 7.59676 82.0378 7.59676 81.7358C7.59676 81.4339 7.46632 81.2322 7.20545 81.1308C7.03692 81.064 6.79451 81.0306 6.47823 81.0306H6.39512C6.35126 81.0306 6.32933 81.0087 6.32933 80.9649V80.8024C6.32933 80.7586 6.35126 80.7367 6.39512 80.7367H11.2813C11.3275 80.7367 11.3506 80.7586 11.3506 80.8024V80.9649C11.3506 81.0317 11.3159 81.0651 11.2467 81.0651C10.5264 81.0882 10 81.1827 9.66758 81.3486C9.33514 81.5146 9.0685 81.6955 8.86765 81.8914C8.6668 82.0896 8.44863 82.3881 8.21316 82.7868C7.49056 84.0083 6.77143 84.9844 6.05576 85.715C5.75333 86.0238 5.59634 86.2151 5.5848 86.2889C5.6125 86.3442 5.84336 86.5689 6.27738 86.963C7.36012 87.9541 8.49596 89.2966 9.6849 90.9906C10.1305 91.6382 10.7134 92.0381 11.4337 92.1902C11.9139 92.3008 12.2174 92.3561 12.3444 92.3561C12.4691 92.3561 12.5314 92.3792 12.5314 92.4253V92.567C12.5314 92.6131 12.5095 92.6362 12.4656 92.6362H6.93534C6.89147 92.6362 6.86954 92.6131 6.86954 92.567V92.408C6.86954 92.3642 6.96535 92.3331 7.15696 92.3147C7.79414 92.2593 8.11273 92.0738 8.11273 91.7581C8.07348 91.4423 7.50672 90.6633 6.41244 89.421C6.2139 89.2021 6.00843 88.9566 5.79604 88.6847C4.93954 87.6337 4.23426 87.1082 3.68019 87.1082H3.5209C3.46549 87.1082 3.43779 87.1474 3.43779 87.2258V91.1773C3.43779 91.9632 3.978 92.3561 5.05843 92.3561C5.10461 92.3561 5.12769 92.3792 5.12769 92.4253ZM17.5457 92.6362H13.1478C13.104 92.6362 13.082 92.6131 13.082 92.567V92.3665C13.082 92.3204 13.1097 92.2974 13.1651 92.2974H13.3625C13.6719 92.2974 13.8831 92.2697 13.9962 92.2144C14.4118 92.0116 14.6196 91.455 14.6196 90.5446V81.7739C14.6196 81.3959 14.2536 81.1712 13.5218 81.0997C13.3579 81.0813 13.2436 81.0721 13.179 81.0721C13.1143 81.0721 13.082 81.0502 13.082 81.0064V80.8024C13.082 80.7586 13.104 80.7367 13.1478 80.7367H16.2437L24.2673 89.5904C24.295 89.6181 24.3146 89.6388 24.3261 89.6527C24.3377 89.6665 24.3561 89.6734 24.3815 89.6734C24.4069 89.6734 24.4196 89.6481 24.4196 89.5974V83.7825C24.4196 82.6623 24.3261 81.9306 24.1391 81.5872C23.9544 81.2438 23.5804 81.0721 23.0171 81.0721H22.5843C22.5404 81.0721 22.5185 81.0502 22.5185 81.0064V80.8024C22.5185 80.7586 22.5404 80.7367 22.5843 80.7367H26.9822C27.026 80.7367 27.048 80.7586 27.048 80.8024V81.0064C27.048 81.0502 26.9649 81.0721 26.7986 81.0721C26.6324 81.0721 26.3589 81.1677 25.9779 81.359C25.5993 81.5503 25.41 81.7865 25.41 82.0677V92.3907C25.41 92.5152 25.3927 92.6039 25.3581 92.6569C25.3234 92.7099 25.2426 92.7364 25.1157 92.7364C24.9887 92.7364 24.894 92.7111 24.8317 92.6604C24.7717 92.6097 24.699 92.5371 24.6135 92.4426L15.8974 82.7937C15.842 82.7384 15.7912 82.7107 15.745 82.7107C15.7173 82.7107 15.7035 82.7384 15.7035 82.7937V91.2188C15.7035 91.7304 16.1086 92.0681 16.9189 92.2317C17.1452 92.2755 17.3172 92.2974 17.4349 92.2974C17.555 92.2974 17.615 92.3204 17.615 92.3665V92.567C17.615 92.6131 17.5919 92.6362 17.5457 92.6362ZM32.1973 81.0721C31.2508 81.0721 30.7775 81.4489 30.7775 82.2025V88.2456C30.7775 89.3611 31.1458 90.2715 31.8822 90.9768C32.621 91.6843 33.5687 92.0381 34.7253 92.0381C35.9258 92.0381 36.9104 91.7154 37.6791 91.0701C38.4479 90.4271 38.8323 89.534 38.8323 88.3908V83.0219C38.8323 82.4872 38.785 82.1161 38.6903 81.9087C38.4479 81.3509 37.9008 81.0721 37.0489 81.0721C37.005 81.0721 36.9831 81.0502 36.9831 81.0064V80.8024C36.9831 80.7586 37.005 80.7367 37.0489 80.7367H41.2079C41.254 80.7367 41.2771 80.7586 41.2771 80.8024V81.0064C41.2771 81.0502 41.2148 81.0721 41.0901 81.0721C40.3514 81.0721 39.9 81.359 39.7361 81.9329C39.7084 82.0297 39.6946 82.1196 39.6946 82.2025V87.734C39.6946 90.2024 38.748 91.7915 36.855 92.5013C36.2178 92.7433 35.5841 92.8643 34.9538 92.8643C32.6937 92.8643 31.028 92.2732 29.9568 91.0908C29.4028 90.4847 29.1257 89.7333 29.1257 88.8368V82.085C29.1257 81.6079 28.836 81.2933 28.2565 81.1412C28.088 81.0951 27.9449 81.0721 27.8271 81.0721C27.7071 81.0721 27.6471 81.0502 27.6471 81.0064V80.8024C27.6471 80.7586 27.6667 80.7367 27.7059 80.7367H32.2908C32.3347 80.7367 32.3566 80.7586 32.3566 80.8024V81.0064C32.3566 81.0502 32.3035 81.0721 32.1973 81.0721ZM46.7624 88.8437C46.7624 87.7374 47.1549 86.7856 47.9398 85.9881C48.727 85.193 49.6701 84.7954 50.769 84.7954C51.8679 84.7954 52.8237 85.1826 53.6363 85.957C54.4466 86.7291 54.8518 87.6833 54.8518 88.8195C54.8518 89.958 54.4674 90.9168 53.6986 91.6958C52.9299 92.4748 51.9649 92.8643 50.8036 92.8643C49.6424 92.8643 48.6785 92.4702 47.9121 91.682C47.1456 90.8938 46.7624 89.9477 46.7624 88.8437ZM48.8678 91.0148C49.4196 91.9436 50.1722 92.408 51.1257 92.408C51.8621 92.408 52.4266 92.113 52.819 91.523C53.2115 90.9307 53.4077 90.2047 53.4077 89.345C53.4077 88.483 53.133 87.5991 52.5836 86.6934C52.0341 85.7876 51.2942 85.3347 50.3638 85.3347C49.6805 85.3347 49.1437 85.6286 48.7536 86.2163C48.3611 86.804 48.1649 87.5496 48.1649 88.453C48.1649 89.3565 48.3992 90.2104 48.8678 91.0148ZM62.2832 89.9776L62.2659 88.1972C62.2659 87.4712 62.2036 86.9619 62.0789 86.6692C61.9565 86.3765 61.7995 86.1552 61.6079 86.0054C61.4163 85.8579 61.1578 85.7841 60.8322 85.7841C60.509 85.7841 59.8234 86.0365 58.7753 86.5412C58.6344 86.6265 58.5606 86.706 58.5536 86.7798V91.319C58.5536 91.8883 58.8584 92.2144 59.4678 92.2974C59.7333 92.3366 59.8661 92.3999 59.8661 92.4875C59.8661 92.5751 59.8372 92.6247 59.7795 92.6362H56.0084C55.953 92.6247 55.9253 92.5855 55.9253 92.5186C55.9253 92.4103 56.058 92.3366 56.3235 92.2974C56.9307 92.2144 57.2343 91.8883 57.2343 91.319V86.4756C57.2343 86.2382 57.105 86.0745 56.8464 85.9846C56.7333 85.9455 56.6121 85.9132 56.4828 85.8878C56.3535 85.8625 56.2508 85.8383 56.1746 85.8152C56.0984 85.7945 56.0511 85.7738 56.0326 85.753C56.0119 85.7323 56.0015 85.6896 56.0015 85.6251C56.0015 85.5606 56.0442 85.5064 56.1296 85.4626L58.2835 84.4497C58.3505 84.4151 58.3932 84.3978 58.4117 84.3978C58.5063 84.3978 58.5536 84.4658 58.5536 84.6018V85.919C58.5721 85.9743 58.5952 86.0019 58.6229 86.0019C58.6552 86.0019 58.7764 85.9512 58.9865 85.8498C59.4713 85.6078 59.9584 85.3739 60.4479 85.148C60.9396 84.9245 61.3459 84.8127 61.6668 84.8127C62.9689 84.8127 63.6199 85.9973 63.6199 88.3666L63.5437 90.8316V91.319C63.5437 91.7592 63.763 92.0462 64.2017 92.1798C64.3887 92.2421 64.5676 92.2859 64.7384 92.3112C64.9116 92.3366 65.0247 92.3608 65.0778 92.3838C65.1309 92.4069 65.1574 92.4518 65.1574 92.5186C65.1574 92.5855 65.1297 92.6247 65.0743 92.6362H60.9985C60.9407 92.6247 60.9119 92.5855 60.9119 92.5186C60.9119 92.4103 61.0446 92.3366 61.3101 92.2974C61.9127 92.2144 62.2139 91.8664 62.2139 91.2533C62.2601 90.9721 62.2832 90.5469 62.2832 89.9776ZM69.0359 92.3147C69.3014 92.3492 69.4341 92.4172 69.4341 92.5186C69.4341 92.5855 69.4064 92.6247 69.351 92.6362H65.5799C65.5222 92.6247 65.4933 92.5855 65.4933 92.5186C65.4933 92.4172 65.6261 92.3492 65.8916 92.3147C66.501 92.2248 66.8058 91.9044 66.8058 91.3536V80.8266C66.8058 80.5915 66.6765 80.429 66.4179 80.3391C66.3048 80.3 66.1836 80.2677 66.0543 80.2423C65.9227 80.217 65.8188 80.1928 65.7427 80.1697C65.6665 80.1467 65.6191 80.126 65.6007 80.1075C65.5799 80.0868 65.5695 80.0441 65.5695 79.9796C65.5695 79.9151 65.6122 79.8609 65.6976 79.8171L67.855 78.8042C67.922 78.7696 67.9635 78.7523 67.9797 78.7523C68.0767 78.7523 68.1251 78.8192 68.1251 78.9528V91.3536C68.1251 91.9044 68.4287 92.2248 69.0359 92.3147ZM74.0918 92.6362H70.3206C70.2652 92.6247 70.2375 92.5855 70.2375 92.5186C70.2375 92.4172 70.3703 92.3492 70.6358 92.3147C71.2429 92.2248 71.5465 91.9044 71.5465 91.3536V86.887C71.5465 86.6519 71.4172 86.4894 71.1587 86.3995C71.0455 86.3603 70.9243 86.3281 70.7951 86.3027C70.6658 86.2774 70.563 86.2532 70.4869 86.2301C70.4107 86.2071 70.3622 86.1863 70.3414 86.1679C70.323 86.1471 70.3137 86.1045 70.3137 86.04C70.3137 85.9754 70.3553 85.9201 70.4384 85.874L72.5958 84.8611C72.6627 84.8288 72.7054 84.8127 72.7239 84.8127C72.8186 84.8127 72.8659 84.8795 72.8659 85.0132V91.3536C72.8659 91.9044 73.1706 92.2248 73.7801 92.3147C74.0433 92.3492 74.1749 92.408 74.1749 92.491C74.1749 92.5763 74.1472 92.6247 74.0918 92.6362ZM72.0833 82.4411C71.8501 82.4411 71.6446 82.3673 71.4669 82.2198C71.2891 82.0746 71.2002 81.8707 71.2002 81.6079C71.2002 81.3475 71.2845 81.1412 71.453 80.9891C71.6239 80.837 71.8259 80.7609 72.059 80.7609C72.2922 80.7609 72.4896 80.8508 72.6512 81.0306C72.8105 81.2103 72.8901 81.4051 72.8901 81.6148C72.8901 81.8223 72.8139 82.0112 72.6616 82.1818C72.5115 82.3547 72.3187 82.4411 72.0833 82.4411ZM81.3951 89.9776L81.3777 88.1972C81.3777 87.4712 81.3166 86.9619 81.1942 86.6692C81.0695 86.3765 80.9114 86.1552 80.7198 86.0054C80.5282 85.8579 80.2696 85.7841 79.9441 85.7841C79.6209 85.7841 78.9352 86.0365 77.8871 86.5412C77.7463 86.6265 77.6736 86.706 77.669 86.7798V91.319C77.669 91.8883 77.9725 92.2144 78.5797 92.2974C78.8452 92.3366 78.9779 92.3999 78.9779 92.4875C78.9779 92.5751 78.9502 92.6247 78.8948 92.6362H75.1237C75.066 92.6247 75.0371 92.5855 75.0371 92.5186C75.0371 92.4103 75.1699 92.3366 75.4354 92.2974C76.0448 92.2144 76.3496 91.8883 76.3496 91.319V86.4756C76.3496 86.2382 76.2192 86.0745 75.9583 85.9846C75.8475 85.9455 75.7263 85.9132 75.5947 85.8878C75.4654 85.8625 75.3627 85.8383 75.2865 85.8152C75.2103 85.7945 75.163 85.7738 75.1445 85.753C75.1237 85.7323 75.1133 85.6896 75.1133 85.6251C75.1133 85.5606 75.156 85.5064 75.2414 85.4626L77.3954 84.4497C77.4646 84.4151 77.5074 84.3978 77.5235 84.3978C77.6205 84.3978 77.669 84.4658 77.669 84.6018V85.919C77.6851 85.9743 77.707 86.0019 77.7348 86.0019C77.7694 86.0019 77.8906 85.9512 78.0984 85.8498C78.5832 85.6078 79.0703 85.3739 79.5597 85.148C80.0514 84.9245 80.4578 84.8127 80.7787 84.8127C82.0807 84.8127 82.7318 85.9973 82.7318 88.3666L82.6556 90.8316V91.319C82.6556 91.7592 82.8749 92.0462 83.3135 92.1798C83.5005 92.2421 83.6794 92.2859 83.8503 92.3112C84.0234 92.3366 84.1365 92.3608 84.1896 92.3838C84.2427 92.4069 84.2693 92.4518 84.2693 92.5186C84.2693 92.5855 84.2416 92.6247 84.1862 92.6362H80.1103C80.0549 92.6247 80.0272 92.5855 80.0272 92.5186C80.0272 92.4103 80.1588 92.3366 80.422 92.2974C81.0268 92.2144 81.3293 91.8664 81.3293 91.2533C81.3731 90.9721 81.3951 90.5469 81.3951 89.9776ZM91.2955 88.1868H86.3921C86.2951 88.1868 86.2466 88.3931 86.2466 88.8057C86.2466 89.6769 86.5063 90.4075 87.0258 90.9975C87.5452 91.5898 88.1893 91.886 88.9581 91.886C89.7268 91.886 90.4668 91.5541 91.1778 90.8903C91.1894 90.8788 91.2032 90.873 91.2194 90.873H91.2609C91.2955 90.873 91.3279 90.8995 91.3579 90.9526C91.3902 91.0056 91.4202 91.0401 91.4479 91.0563C90.7946 91.8514 90.0247 92.4011 89.1381 92.7053C88.8334 92.8113 88.4894 92.8643 88.1062 92.8643C87.723 92.8643 87.3351 92.7583 86.9427 92.5463C86.5479 92.3366 86.2097 92.06 85.928 91.7166C85.3301 91.0021 85.0311 90.1113 85.0311 89.0442C85.0311 87.9794 85.3566 87.008 86.0077 86.1298C86.6587 85.2517 87.5533 84.8127 88.6914 84.8127C89.5087 84.8127 90.1759 85.1768 90.693 85.9051C91.2124 86.6334 91.4722 87.273 91.4722 87.8238C91.4722 88.0658 91.4133 88.1868 91.2955 88.1868ZM86.4856 87.2776V87.3779C86.4856 87.4839 86.5363 87.5369 86.6379 87.5369H89.8238C89.9716 87.5369 90.0454 87.4505 90.0454 87.2776C90.0454 86.872 89.8631 86.4571 89.4983 86.033C89.1358 85.6067 88.7376 85.3935 88.3036 85.3935C87.8788 85.3935 87.4933 85.5848 87.147 85.9674C86.8007 86.35 86.5802 86.7867 86.4856 87.2776ZM97.8716 97.2203C98.4696 97.0797 98.7685 96.4436 98.7685 95.312V86.887C98.7685 86.6519 98.6381 86.4894 98.3772 86.3995C98.2641 86.3603 98.1429 86.3281 98.0136 86.3027C97.8843 86.2774 97.7816 86.2532 97.7054 86.2301C97.6292 86.2071 97.5819 86.1863 97.5634 86.1679C97.5427 86.1471 97.5323 86.1045 97.5323 86.04C97.5323 85.9754 97.575 85.9201 97.6604 85.874L99.8143 84.8611C99.8836 84.8288 99.9263 84.8127 99.9425 84.8127C100.037 84.8127 100.084 84.8795 100.084 85.0132V93.7079C100.084 94.609 99.8986 95.4284 99.5269 96.1659C99.3976 96.4171 99.243 96.6476 99.0629 96.8573C98.5665 97.5211 97.9132 97.8979 97.1029 97.9878C96.8304 98.0224 96.5442 98.0397 96.2441 98.0397C95.9416 98.0397 95.6415 97.9256 95.3437 97.6974C95.0436 97.4693 94.8831 97.2226 94.8624 96.9576C94.8624 96.6534 95.0113 96.4287 95.3091 96.2835C95.406 96.2374 95.4903 96.2143 95.5619 96.2143C95.6911 96.2143 96.0801 96.4621 96.7289 96.9576C96.9597 97.1328 97.3406 97.2203 97.8716 97.2203ZM99.1945 82.4411C98.9613 82.4411 98.7535 82.3673 98.5711 82.2198C98.3911 82.0746 98.301 81.8707 98.301 81.6079C98.301 81.3475 98.3853 81.1412 98.5538 80.9891C98.7247 80.837 98.9278 80.7609 99.1633 80.7609C99.4011 80.7609 99.5996 80.8508 99.7589 81.0306C99.9205 81.2103 100.001 81.4051 100.001 81.6148C100.001 81.8223 99.9251 82.0112 99.7728 82.1818C99.6204 82.3547 99.4276 82.4411 99.1945 82.4411ZM108.202 92.6535V91.8929C108.174 91.7984 108.137 91.7661 108.091 91.7961C108.047 91.8284 107.863 91.9252 107.54 92.0865C106.487 92.6097 105.609 92.8713 104.905 92.8713C104.201 92.8713 103.693 92.6465 103.381 92.1971C103.268 92.0289 103.211 91.8203 103.211 91.5714V86.4237C103.195 86.2601 103.123 86.1195 102.993 86.0019C102.818 85.8567 102.637 85.7784 102.45 85.7668C102.26 85.7553 102.166 85.6977 102.166 85.594C102.166 85.488 102.211 85.4246 102.301 85.4038L104.236 84.8472C104.303 84.8242 104.369 84.8127 104.434 84.8127C104.499 84.8127 104.531 84.8599 104.531 84.9544V90.6207C104.531 91.0125 104.706 91.3155 105.057 91.5299C105.406 91.7442 105.853 91.8514 106.397 91.8514C106.94 91.8514 107.428 91.6855 107.862 91.3536C107.998 91.2476 108.111 91.1289 108.202 90.9975V86.4237C108.185 86.2601 108.111 86.1195 107.98 86.0019C107.807 85.8567 107.626 85.7784 107.436 85.7668C107.247 85.7553 107.152 85.6977 107.152 85.594C107.152 85.488 107.197 85.4246 107.287 85.4038L109.223 84.8472C109.292 84.8242 109.359 84.8127 109.424 84.8127C109.489 84.8127 109.521 84.8691 109.521 84.9821V90.9733C109.549 91.2199 109.619 91.3974 109.732 91.5057C109.845 91.6117 110.028 91.6647 110.279 91.6647L110.771 91.6301C110.806 91.6301 110.823 91.6636 110.823 91.7304C110.823 91.7949 110.78 91.8468 110.695 91.886L108.447 92.8125C108.378 92.8471 108.32 92.8643 108.274 92.8643C108.226 92.8643 108.202 92.7941 108.202 92.6535ZM117.136 85.1618C117.385 85.2494 117.538 85.2932 117.593 85.2932C117.648 85.2932 117.684 85.2921 117.7 85.2898C117.714 85.2875 117.731 85.2517 117.752 85.1826V80.8266C117.752 80.5915 117.623 80.429 117.364 80.3391C117.251 80.3 117.13 80.2677 117.001 80.2423C116.872 80.217 116.769 80.1928 116.693 80.1697C116.616 80.1467 116.569 80.126 116.551 80.1075C116.53 80.0868 116.519 80.0441 116.519 79.9796C116.519 79.9151 116.562 79.8609 116.648 79.8171L118.802 78.8042C118.868 78.7696 118.911 78.7523 118.93 78.7523C119.024 78.7523 119.072 78.8192 119.072 78.9528V90.9733C119.099 91.2199 119.17 91.3974 119.283 91.5057C119.396 91.6117 119.58 91.6647 119.833 91.6647L120.325 91.6301C120.358 91.6301 120.374 91.6636 120.374 91.7304C120.374 91.7949 120.332 91.8468 120.249 91.886L117.998 92.8125C117.931 92.8471 117.873 92.8643 117.825 92.8643C117.777 92.8643 117.752 92.7941 117.752 92.6535V91.886C117.752 91.8284 117.738 91.7995 117.711 91.7995C117.671 91.7995 117.438 91.9263 117.011 92.1798C115.698 92.9565 114.589 93.0718 113.687 92.5255C112.967 92.0876 112.479 91.3928 112.225 90.4409C112.105 89.9961 112.045 89.5248 112.045 89.0269C112.045 88.5291 112.149 88.0347 112.357 87.5438C112.562 87.0506 112.845 86.6185 113.205 86.2474C114 85.4361 114.958 85.0305 116.08 85.0305C116.537 85.0305 116.889 85.0743 117.136 85.1618ZM113.323 88.7815C113.323 89.6342 113.56 90.3798 114.033 91.0182C114.506 91.659 115.167 91.9793 116.014 91.9793C116.386 91.9793 116.769 91.8871 117.164 91.7027C117.556 91.5207 117.752 91.3812 117.752 91.2844V86.9319C117.752 86.8236 117.68 86.6968 117.534 86.5516C117.084 85.9316 116.485 85.6216 115.737 85.6216C114.991 85.6216 114.402 85.9351 113.971 86.562C113.539 87.1912 113.323 87.931 113.323 88.7815ZM127.466 85.6216C127.466 85.6216 128.222 85.5882 129.734 85.5214C129.863 85.5214 129.948 85.5352 129.987 85.5629C130.026 85.5905 130.069 85.6873 130.115 85.8533C130.159 86.0192 130.181 86.1759 130.181 86.3234C130.181 86.4686 130.167 86.5528 130.139 86.5758C130.111 86.5989 130.055 86.6104 129.969 86.6104H128.093C128.127 86.6726 128.164 86.7371 128.203 86.804C128.243 86.8708 128.293 86.9838 128.356 87.1428C128.418 87.2995 128.449 87.5427 128.449 87.8722C128.449 88.2018 128.368 88.5452 128.207 88.9025C128.045 89.2597 127.81 89.5755 127.5 89.8497C126.812 90.4697 125.922 90.7797 124.83 90.7797C124.542 90.7797 124.226 90.7267 123.882 90.6207C123.799 90.7106 123.687 90.7935 123.546 90.8696C123.405 90.9433 123.266 91.0205 123.13 91.1012C122.791 91.2925 122.621 91.4838 122.621 91.6751C122.621 92.1522 123.416 92.3965 125.007 92.408C126.595 92.4195 127.639 92.4714 128.138 92.5636C128.639 92.6581 129.026 92.8425 129.301 93.1167C129.735 93.55 129.952 94.0455 129.952 94.6033C129.952 95.0804 129.747 95.5724 129.336 96.0795C128.62 96.9737 127.527 97.5707 126.056 97.8703C125.532 97.9763 124.977 98.0293 124.391 98.0293C123.324 98.0293 122.515 97.8369 121.963 97.452C121.411 97.0671 121.136 96.6015 121.136 96.0553C121.136 95.7557 121.206 95.5091 121.347 95.3155C121.488 95.1219 121.667 94.9386 121.884 94.7658C122.101 94.5952 122.338 94.4154 122.597 94.2265C122.855 94.0375 123.104 93.7966 123.341 93.5039C122.801 93.4601 122.337 93.2896 121.949 92.9923C121.564 92.6926 121.371 92.3999 121.371 92.1141C121.371 91.8261 121.447 91.6129 121.6 91.4746C121.752 91.3363 121.938 91.2188 122.157 91.122C122.376 91.0228 122.607 90.9307 122.85 90.8454C123.092 90.7624 123.303 90.6529 123.483 90.517C122.853 90.2703 122.366 89.9292 122.022 89.4936C121.678 89.0557 121.506 88.5787 121.506 88.0624C121.506 87.099 121.857 86.3142 122.559 85.7081C123.261 85.0996 124.108 84.7954 125.101 84.7954C126.091 84.7954 126.879 85.0708 127.466 85.6216ZM122.87 94.427C122.739 94.556 122.63 94.6932 122.545 94.8384C122.462 94.9859 122.42 95.1703 122.42 95.3915C122.42 95.6151 122.5 95.849 122.659 96.0933C122.821 96.3376 123.04 96.5577 123.317 96.7536C123.924 97.2054 124.656 97.4312 125.513 97.4312C126.369 97.4312 127.146 97.1823 127.843 96.6845C128.54 96.1867 128.889 95.6404 128.889 95.0458C128.889 94.4512 128.6 94.0536 128.023 93.8531C127.753 93.7632 127.057 93.7067 125.935 93.6837C124.815 93.6606 124.089 93.6295 123.757 93.5903C123.609 93.7586 123.458 93.9072 123.303 94.0363C123.149 94.1654 123.004 94.2956 122.87 94.427ZM127.061 87.8688C127.061 87.0736 126.862 86.4272 126.465 85.9293C126.068 85.4315 125.543 85.1826 124.889 85.1826C124.044 85.1826 123.446 85.579 123.096 86.3718C122.962 86.6761 122.895 87.0252 122.895 87.4194C122.895 88.2237 123.061 88.8933 123.393 89.428C123.797 90.071 124.329 90.3925 124.99 90.3925C125.65 90.3925 126.16 90.1701 126.52 89.7253C126.881 89.2804 127.061 88.6616 127.061 87.8688ZM137.103 88.1868H132.2C132.105 88.1868 132.058 88.3931 132.058 88.8057C132.058 89.6769 132.316 90.4075 132.833 90.9975C133.353 91.5898 133.997 91.886 134.766 91.886C135.537 91.886 136.277 91.5541 136.985 90.8903C136.997 90.8788 137.011 90.873 137.027 90.873H137.072C137.104 90.873 137.137 90.8995 137.169 90.9526C137.199 91.0056 137.228 91.0401 137.255 91.0563C136.602 91.8514 135.833 92.4011 134.949 92.7053C134.644 92.8113 134.3 92.8643 133.917 92.8643C133.534 92.8643 133.145 92.7583 132.75 92.5463C132.355 92.3366 132.017 92.06 131.736 91.7166C131.138 91.0021 130.839 90.1113 130.839 89.0442C130.839 87.9794 131.164 87.008 131.815 86.1298C132.466 85.2517 133.361 84.8127 134.499 84.8127C135.316 84.8127 135.985 85.1768 136.504 85.9051C137.023 86.6334 137.283 87.273 137.283 87.8238C137.283 88.0658 137.223 88.1868 137.103 88.1868ZM132.293 87.2776V87.3779C132.293 87.4839 132.344 87.5369 132.445 87.5369H135.635C135.78 87.5369 135.853 87.4505 135.853 87.2776C135.853 86.872 135.672 86.4571 135.309 86.033C134.945 85.6067 134.545 85.3935 134.111 85.3935C133.689 85.3935 133.304 85.5848 132.958 85.9674C132.612 86.35 132.39 86.7867 132.293 87.2776Z" fill="#6B7280"/>
</g>
</g>
</g>
</g>
</g>
</g>
<defs>
<clipPath id="clip0_300_987">
<rect width="138" height="98" fill="white"/>
</clipPath>
<clipPath id="clip1_300_987">
<rect width="137.961" height="98.0793" fill="white" transform="translate(0.0192871 -0.0396729)"/>
</clipPath>
<clipPath id="clip2_300_987">
<rect width="137.961" height="98.0793" fill="white" transform="translate(0.0192871 -0.0396729)"/>
</clipPath>
<clipPath id="clip3_300_987">
<rect width="137.961" height="98.0793" fill="white" transform="translate(0.0192871 -0.0396729)"/>
</clipPath>
<clipPath id="clip4_300_987">
<rect width="101" height="44" fill="white" transform="translate(18 21)"/>
</clipPath>
<clipPath id="clip5_300_987">
<rect width="101" height="44" fill="white" transform="translate(18 21)"/>
</clipPath>
<clipPath id="clip6_300_987">
<rect width="137.275" height="19.2874" fill="white" transform="translate(0.0192871 78.7523)"/>
</clipPath>
<clipPath id="clip7_300_987">
<rect width="137.275" height="19.2874" fill="white" transform="translate(0.0192871 78.7523)"/>
</clipPath>
</defs>
</svg>
