<svg width="50" height="51" viewBox="0 0 50 51" fill="none" xmlns="http://www.w3.org/2000/svg">
<path fill-rule="evenodd" clip-rule="evenodd" d="M36.8199 7.85702L41.534 12.5711C42.8357 13.8728 42.8357 15.9834 41.534 17.2851L19.1422 39.6768C18.5171 40.3019 17.6693 40.6531 16.7852 40.6531L12.0712 40.6531C10.2302 40.6531 8.73784 39.1608 8.73784 37.3198L8.73784 32.6058C8.73784 31.7217 9.08903 30.8739 9.71415 30.2487L32.1059 7.85702C33.4076 6.55528 35.5182 6.55527 36.8199 7.85702ZM29.2433 15.4336L12.0712 32.6058L12.0712 37.3198H16.7852L33.9574 20.1476L29.2433 15.4336ZM31.6004 13.0766L36.3144 17.7906L39.1769 14.9281L34.4629 10.214L31.6004 13.0766Z" fill="black"/>
<mask id="mask0_57_5779" style="mask-type:luminance" maskUnits="userSpaceOnUse" x="8" y="6" width="35" height="35">
<path fill-rule="evenodd" clip-rule="evenodd" d="M36.8199 7.85702L41.534 12.5711C42.8357 13.8728 42.8357 15.9834 41.534 17.2851L19.1422 39.6768C18.5171 40.3019 17.6693 40.6531 16.7852 40.6531L12.0712 40.6531C10.2302 40.6531 8.73784 39.1608 8.73784 37.3198L8.73784 32.6058C8.73784 31.7217 9.08903 30.8739 9.71415 30.2487L32.1059 7.85702C33.4076 6.55528 35.5182 6.55527 36.8199 7.85702ZM29.2433 15.4336L12.0712 32.6058L12.0712 37.3198H16.7852L33.9574 20.1476L29.2433 15.4336ZM31.6004 13.0766L36.3144 17.7906L39.1769 14.9281L34.4629 10.214L31.6004 13.0766Z" fill="white"/>
</mask>
<g mask="url(#mask0_57_5779)">
<rect y="0.5" width="50" height="50" fill="#101828"/>
</g>
</svg>
